<svg width="924" height="274" viewBox="0 0 924 274" fill="none" xmlns="http://www.w3.org/2000/svg">
<g clip-path="url(#clip0_3849_2)">
<path d="M888.889 273.947H34.1881C15.3848 273.947 0 258.537 0 239.703V34.2435C0 15.4095 15.3845 0 34.1881 0H888.888C907.692 0 923.077 15.4095 923.077 34.2435V239.703C923.077 258.537 907.692 273.947 888.889 273.947Z" fill="black"/>
<path d="M888.889 0H34.1881C15.3848 0 0 15.4095 0 34.2435V239.703C0 258.537 15.3845 273.947 34.1881 273.947H888.888C907.692 273.947 923.077 258.537 923.077 239.703V34.2435C923.077 15.4095 907.693 0 888.889 0ZM888.888 5.47876C904.725 5.47876 917.606 18.3846 917.606 34.2435V239.703C917.606 255.565 904.724 268.471 888.888 268.471H34.1881C18.3551 268.471 5.47014 255.565 5.47014 239.703V34.2435C5.47014 18.3846 18.3548 5.47907 34.1881 5.47907H888.888" fill="#A6A6A6"/>
<path d="M324.23 70.1536C324.23 75.8915 322.533 80.4608 319.136 83.8693C315.277 87.9223 310.247 89.9504 304.064 89.9504C298.142 89.9504 293.108 87.8959 288.967 83.7809C284.82 79.6691 282.75 74.5702 282.75 68.4866C282.75 62.4002 284.82 57.3044 288.967 53.1892C293.108 49.0776 298.142 47.02 304.064 47.02C307.002 47.02 309.815 47.5956 312.485 48.7434C315.156 49.8939 317.299 51.4212 318.901 53.3338L315.295 56.948C312.579 53.6976 308.84 52.0737 304.064 52.0737C299.745 52.0737 296.011 53.5936 292.86 56.6352C289.707 59.68 288.132 63.6284 288.132 68.4866C288.132 73.3451 289.707 77.2932 292.86 80.3383C296.011 83.3799 299.745 84.8995 304.064 84.8995C308.645 84.8995 312.464 83.3716 315.522 80.3115C317.507 78.3179 318.655 75.5468 318.962 71.9884H304.063V67.0526H323.944C324.136 68.1259 324.229 69.1557 324.229 70.1536" fill="white"/>
<path d="M324.226 70.1534H323.542C323.536 75.7605 321.901 80.1155 318.648 83.3849L318.641 83.3905L318.638 83.396C314.901 87.3093 310.098 89.257 304.059 89.2653C298.296 89.257 293.472 87.2881 289.444 83.2966C285.425 79.2971 283.437 74.4145 283.429 68.4864C283.437 62.5555 285.425 57.6757 289.444 53.679C293.472 49.6847 298.296 47.713 304.059 47.7047C306.909 47.7047 309.623 48.2618 312.211 49.3717C314.802 50.4902 316.848 51.9559 318.373 53.7756L318.897 53.3336L318.413 52.8495L314.807 56.4661L315.291 56.9478L315.817 56.5095C312.975 53.0982 308.985 51.3785 304.059 51.3887C299.581 51.3831 295.641 52.9861 292.382 56.1432C289.092 59.3104 287.438 63.481 287.444 68.4864C287.438 73.4921 289.092 77.6624 292.382 80.8299C295.641 83.987 299.581 85.5897 304.059 85.5841C308.792 85.5924 312.826 83.9842 316.001 80.7954C318.122 78.6655 319.324 75.7153 319.639 72.047L319.703 71.3033H304.743V67.7372H323.94V67.0524L323.266 67.1727C323.453 68.2112 323.542 69.198 323.542 70.1534H324.909C324.909 69.1124 324.813 68.0425 324.612 66.9299L324.511 66.3675H303.376V72.673H318.958V71.9882L318.277 71.9294C317.975 75.3755 316.88 77.9705 315.034 79.8274C312.097 82.7592 308.491 84.2061 304.059 84.2144C299.901 84.2089 296.373 82.7749 293.331 79.8456C290.318 76.9268 288.819 73.2003 288.812 68.4864C288.819 63.7725 290.318 60.046 293.331 57.1272C296.373 54.1979 299.901 52.7639 304.059 52.7584C308.683 52.7694 312.174 54.2995 314.768 57.3894L315.249 57.9619L319.381 53.8181L319.824 53.3742L319.42 52.8947C317.74 50.8888 315.502 49.2966 312.751 48.1146C309.995 46.929 307.086 46.335 304.059 46.335C297.981 46.3297 292.735 48.4698 288.48 52.7051C284.209 56.9321 282.057 62.2452 282.063 68.4864C282.057 74.7248 284.209 80.041 288.483 84.2704C292.735 88.5029 297.981 90.6406 304.059 90.635C310.39 90.6406 315.641 88.5346 319.626 84.3425L319.132 83.8691L319.615 84.3536C323.157 80.8087 324.914 76.02 324.909 70.1534H324.226ZM355.742 52.9886H337.059V66.0176H353.908V70.9552H337.059V83.9842H355.742V89.0323H331.792V47.9404H355.742V52.9886Z" fill="white"/>
<path d="M355.743 52.9889V52.304H336.376V66.7027H353.225V70.2688L336.376 70.2706V84.6693H355.059V88.3478H332.477V48.6255H355.059V52.9889H355.743H356.427V47.2559H331.109V89.7175H356.427V83.2996H337.744V71.6403H354.592V65.333H337.744V53.6737H356.427V52.9889H355.743ZM377.973 89.0329H372.698V52.9885H361.24V47.9404H389.432V52.9885H377.973V89.0323" fill="white"/>
<path d="M377.972 89.0329V88.3478H373.38V52.304H361.922V48.6259H388.747V52.304H377.288V89.0326H377.972H378.656V53.6737H390.114V47.2559H360.555V53.6734H372.013V89.7172H378.656V89.0323H377.972M409.828 89.0329V47.9404H415.098V89.0323H409.828" fill="white"/>
<path d="M409.832 89.0329H410.516V48.6255H414.418V88.3478H409.832V89.0326V89.7175H415.785V47.2559H409.148V89.7175H409.832V89.0326M438.486 89.0329H433.211V52.9885H421.753V47.9404H449.944V52.9885H438.486V89.0323" fill="white"/>
<path d="M438.487 89.0329V88.3477H433.896V52.3039H422.438V48.6258H449.262V52.3039H437.803V89.0326H438.487H439.171V53.6736H450.629V47.2558H421.07V53.6733H432.528V89.7171H439.171V89.0322H438.487M477.125 80.2822C480.161 83.3611 483.877 84.8992 488.271 84.8992C492.665 84.8992 496.382 83.3611 499.414 80.2822C502.454 77.203 503.976 73.267 503.976 68.4866C503.976 63.7065 502.454 59.7704 499.414 56.6913C496.382 53.6121 492.665 52.0737 488.271 52.0737C483.877 52.0737 480.161 53.6121 477.125 56.6913C474.093 59.7704 472.571 63.7062 472.571 68.4866C472.571 73.267 474.093 77.203 477.125 80.2822ZM503.314 83.7222C499.28 87.8765 494.264 89.9504 488.271 89.9504C482.272 89.9504 477.258 87.8765 473.234 83.7222C469.198 79.5725 467.189 74.4929 467.189 68.4866C467.189 62.4803 469.198 57.3998 473.234 53.251C477.258 49.0958 482.272 47.02 488.271 47.02C494.233 47.02 499.235 49.1069 503.287 53.2778C507.333 57.4484 509.358 62.5178 509.358 68.4866C509.358 74.4929 507.338 79.5725 503.314 83.7222Z" fill="white"/>
<path d="M477.127 80.282L476.641 80.7634C479.79 83.9657 483.719 85.5924 488.273 85.5841C492.824 85.5924 496.759 83.9657 499.903 80.7634C503.073 77.5581 504.667 73.4114 504.662 68.4864C504.667 63.5617 503.073 59.4147 499.903 56.2094C496.759 53.0071 492.824 51.3807 488.273 51.3887C483.719 51.3807 479.79 53.0071 476.641 56.2094C473.479 59.4147 471.881 63.5617 471.89 68.4864C471.881 73.4111 473.479 77.5581 476.641 80.7634L477.127 80.282L477.614 79.8003C474.713 76.844 473.263 73.1252 473.257 68.4864C473.263 63.8479 474.713 60.1291 477.613 57.1725C480.541 54.2167 484.037 52.7667 488.273 52.7587C492.506 52.7667 496.011 54.2167 498.93 57.1725C501.836 60.1291 503.287 63.8479 503.292 68.4864C503.287 73.1249 501.836 76.844 498.93 79.8003C496.011 82.7564 492.507 84.2061 488.273 84.2141C484.037 84.2061 480.541 82.7564 477.614 79.8003L477.127 80.282ZM503.316 83.722L502.827 83.2461C498.906 87.2696 494.112 89.2574 488.273 89.2654C482.432 89.257 477.637 87.2696 473.724 83.2461C469.812 79.2088 467.881 74.3401 467.875 68.4864C467.881 62.6327 469.812 57.764 473.724 53.727C477.637 49.7032 482.432 47.713 488.273 47.705C494.074 47.713 498.858 49.7115 502.8 53.7562C506.727 57.8121 508.668 62.6731 508.677 68.4864C508.668 74.3401 506.732 79.2088 502.827 83.2461L503.316 83.722L503.808 84.1978C507.952 79.9339 510.049 74.6448 510.044 68.4864C510.049 62.3631 507.944 57.0847 503.78 52.8018C499.614 48.5019 494.395 46.3276 488.273 46.335C482.12 46.3276 476.885 48.4917 472.744 52.775V52.7719C468.591 57.0389 466.502 62.328 466.508 68.4864C466.502 74.6448 468.591 79.9339 472.744 84.2006L472.763 84.22L472.744 84.1978C476.885 88.4811 482.12 90.6406 488.273 90.635C494.424 90.6406 499.659 88.4811 503.808 84.1978L503.316 83.722ZM516.759 89.0327V47.9401H523.174L543.113 79.9068H543.34L543.113 71.9879V47.9401H548.388V89.032H542.886L522.026 55.5162H521.799L522.026 63.4379V89.032H516.759" fill="white"/>
<path d="M516.752 89.0329H517.436V48.6255H522.789L542.727 80.5923H544.036L543.79 71.9783V48.6259H547.698V88.3478H543.259L522.399 54.8319H521.09L521.335 63.4496V88.3478H516.752V89.0326V89.7175H522.703V63.4277L522.476 55.4983L521.792 55.5168V56.2016H522.019V55.5168L521.44 55.8809L542.5 89.7175H549.065V47.2559H542.423V71.9965L542.65 79.9259L543.334 79.9074V79.2226H543.106V79.9074L543.686 79.5439L523.547 47.2559H516.069V89.7175H516.752V89.0326M731.184 205.46H743.943V119.844H731.184L731.184 205.46ZM846.103 150.685L831.478 187.804H831.04L815.861 150.684H802.117L824.879 202.565L811.902 231.423H825.214L860.291 150.684L846.103 150.685ZM773.748 195.736C769.563 195.736 763.738 193.643 763.738 188.464C763.738 181.856 770.999 179.323 777.262 179.323C782.876 179.323 785.509 180.534 788.921 182.188C787.929 190.118 781.112 195.736 773.748 195.736ZM775.286 148.811C766.049 148.811 756.483 152.888 752.524 161.92L763.847 166.656C766.267 161.92 770.773 160.377 775.505 160.377C782.103 160.377 788.811 164.344 788.921 171.393V172.274C786.609 170.952 781.666 168.97 775.614 168.97C763.409 168.97 750.979 175.687 750.979 188.245C750.979 199.7 760.989 207.081 772.203 207.081C780.784 207.081 785.509 203.226 788.483 198.711H788.921V205.318H801.235V172.493C801.235 157.295 789.912 148.811 775.286 148.811ZM696.435 161.107H678.288V131.76H696.435C705.974 131.76 711.389 139.67 711.389 146.433C711.389 153.068 705.973 161.107 696.435 161.107ZM696.107 119.844H665.536V205.46H678.288V173.023H696.107C710.247 173.023 724.148 162.768 724.148 146.433C724.148 130.098 710.247 119.844 696.107 119.844ZM529.399 195.751C520.585 195.751 513.205 188.36 513.205 178.207C513.205 167.948 520.585 160.444 529.399 160.444C538.101 160.444 544.931 167.948 544.931 178.207C544.931 188.36 538.101 195.751 529.399 195.751ZM544.049 155.479H543.608C540.745 152.059 535.235 148.97 528.296 148.97C513.755 148.97 500.428 161.768 500.428 178.207C500.428 194.537 513.755 207.226 528.296 207.226C535.235 207.226 540.745 204.135 543.608 200.607H544.049V204.799C544.049 215.945 538.101 221.902 528.518 221.902C520.697 221.902 515.85 216.273 513.865 211.53L502.741 216.164C505.935 223.887 514.418 233.377 528.518 233.377C543.499 233.377 556.167 224.548 556.167 203.034V150.735H544.049V155.479ZM564.979 205.46H577.757V119.84H564.979V205.46ZM596.594 177.215C596.263 165.96 605.297 160.224 611.795 160.224C616.866 160.224 621.16 162.76 622.589 166.404L596.594 177.215ZM636.251 167.506C633.83 160.994 626.445 148.97 611.354 148.97C596.373 148.97 583.926 160.775 583.926 178.098C583.926 194.428 596.263 207.226 612.786 207.226C626.117 207.226 633.83 199.061 637.023 194.317L627.108 187.696C623.806 192.552 619.286 195.751 612.786 195.751C606.287 195.751 601.662 192.771 598.686 186.925L637.57 170.815L636.251 167.506ZM326.451 157.907V170.264H355.972C355.091 177.215 352.777 182.29 349.252 185.821C344.957 190.125 338.238 194.869 326.45 194.869C308.274 194.869 294.065 180.195 294.065 161.989C294.065 143.785 308.274 129.109 326.451 129.109C336.255 129.109 343.413 132.971 348.702 137.936L357.404 129.221C350.024 122.158 340.219 116.751 326.451 116.751C301.554 116.751 280.625 137.054 280.625 161.989C280.625 186.925 301.554 207.226 326.451 207.226C339.891 207.226 350.024 202.814 357.954 194.537C366.106 186.372 368.641 174.898 368.641 165.631C368.641 162.76 368.421 160.114 367.978 157.907H326.451ZM402.204 195.751C393.39 195.751 385.788 188.469 385.788 178.098C385.788 167.616 393.39 160.444 402.204 160.444C411.015 160.444 418.616 167.616 418.616 178.098C418.616 188.469 411.015 195.751 402.204 195.751ZM402.204 148.97C386.119 148.97 373.01 161.216 373.01 178.098C373.01 194.869 386.119 207.226 402.204 207.226C418.285 207.226 431.394 194.869 431.394 178.098C431.394 161.216 418.285 148.97 402.204 148.97ZM465.884 195.751C457.073 195.751 449.471 188.469 449.471 178.098C449.471 167.616 457.073 160.444 465.884 160.444C474.696 160.444 482.297 167.616 482.297 178.098C482.297 188.469 474.695 195.751 465.884 195.751ZM465.884 148.97C449.8 148.97 436.694 161.216 436.694 178.098C436.694 194.869 449.8 207.226 465.884 207.226C481.966 207.226 495.075 194.869 495.075 178.098C495.075 161.216 481.966 148.97 465.884 148.97Z" fill="white"/>
<path d="M71.8518 52.1275C69.5572 54.2011 68.1875 57.6598 68.1875 62.2509V61.213V212.713V211.715C68.1875 215.955 69.3624 219.229 71.3519 221.338L71.8598 221.825V221.827C73.4702 223.283 75.5352 224.056 77.9018 224.053C80.2143 224.053 82.8161 223.315 85.5619 221.755L184.811 165.272L218.903 145.869C223.232 143.405 225.663 140.227 226.069 136.989V136.976C225.663 133.731 223.232 130.556 218.903 128.092L184.808 108.69L85.5622 52.2075C82.8105 50.6455 80.2069 49.9043 77.8883 49.9043C75.5244 49.9043 73.4622 50.6747 71.8524 52.1275H71.8518Z" fill="#00C1FF"/>
<path d="M71.8601 221.825L71.3519 221.338C69.3624 219.229 68.1875 215.955 68.1875 211.715V212.713V61.2503V62.2506C68.1875 57.6596 69.5572 54.2009 71.8518 52.1273L156.568 136.979L71.8601 221.825Z" fill="url(#paint0_linear_3849_2)"/>
<path d="M184.813 165.272L156.57 136.979L184.811 108.69L218.905 128.091C223.234 130.555 225.665 133.731 226.071 136.976V136.989C225.665 140.226 223.234 143.405 218.905 145.868L184.813 165.272" fill="url(#paint1_linear_3849_2)"/>
<path d="M77.9008 224.053C75.5345 224.055 73.4695 223.282 71.8594 221.826V221.824L156.568 136.978L184.81 165.272L85.5609 221.755C82.815 223.314 80.2133 224.053 77.9008 224.053Z" fill="url(#paint2_linear_3849_2)"/>
<path d="M156.569 136.979L71.8516 52.1275C73.4619 50.6747 75.5242 49.9043 77.8877 49.9043C80.2064 49.9043 82.8103 50.6452 85.5617 52.2075L184.808 108.69L156.568 136.979" fill="url(#paint3_linear_3849_2)"/>
<path d="M77.9036 225.056C75.5373 225.056 73.4695 224.283 71.8591 222.828L71.8563 222.83C71.8497 222.824 71.8426 222.817 71.8351 222.812L71.3947 222.381C71.3808 222.367 71.3679 222.352 71.3516 222.336L71.8594 221.827C73.4698 223.282 75.5345 224.056 77.9014 224.053C80.2136 224.053 82.8154 223.315 85.5612 221.755L184.81 165.272L185.446 165.909L184.802 166.276L85.5609 222.755C83.0586 224.176 80.6784 224.917 78.5284 225.04C78.3203 225.051 78.112 225.056 77.9036 225.056Z" fill="url(#paint4_linear_3849_2)"/>
<path d="M71.3519 222.336C69.3624 220.228 68.1875 216.956 68.1875 212.713V211.715C68.1875 215.955 69.3624 219.229 71.3519 221.338L71.8598 221.825L71.3519 222.336Z" fill="url(#paint5_linear_3849_2)"/>
<path d="M185.448 165.909L184.812 165.272L218.904 145.868C223.234 143.405 225.664 140.226 226.071 136.989C226.071 138.177 225.806 139.365 225.28 140.521C224.22 142.851 222.094 145.053 218.904 146.869L185.448 165.909" fill="url(#paint6_linear_3849_2)"/>
<path d="M226.073 136.977C225.667 133.731 223.236 130.556 218.907 128.092L184.812 108.691L185.448 108.054H185.451L218.907 127.094C223.68 129.812 226.071 133.394 226.073 136.977Z" fill="url(#paint7_linear_3849_2)"/>
<path d="M68.1875 62.2505V61.204C68.1875 60.8266 68.1977 60.4576 68.217 60.0993V60.083C68.217 60.0781 68.217 60.0728 68.2189 60.0673V60.027C68.4248 56.375 69.5572 53.5263 71.3519 51.6242L71.8518 52.1268C69.5572 54.2007 68.1875 57.6594 68.1875 62.2505Z" fill="url(#paint8_linear_3849_2)"/>
<path d="M184.808 108.69L85.5612 52.2069C82.8099 50.6448 80.2062 49.904 77.8876 49.904C75.5237 49.904 73.4615 50.6744 71.8514 52.1272L71.3516 51.6242C71.5077 51.4587 71.6699 51.2991 71.8379 51.1456C71.8431 51.1401 71.8514 51.1345 71.8567 51.1293C73.4541 49.6876 75.4945 48.9172 77.8371 48.9033H77.8876C80.2062 48.9033 82.8099 49.6445 85.5612 51.2072L185.446 108.051L185.444 108.053L184.808 108.69Z" fill="url(#paint9_linear_3849_2)"/>
</g>
<defs>
<linearGradient id="paint0_linear_3849_2" x1="122.327" y1="59.6495" x2="49.3198" y2="132.774" gradientUnits="userSpaceOnUse">
<stop stop-color="#00A0FF"/>
<stop offset="0.00657" stop-color="#00A1FF"/>
<stop offset="0.2601" stop-color="#00BEFF"/>
<stop offset="0.5122" stop-color="#00D2FF"/>
<stop offset="0.7604" stop-color="#00DFFF"/>
<stop offset="1" stop-color="#00E3FF"/>
</linearGradient>
<linearGradient id="paint1_linear_3849_2" x1="231.346" y1="136.49" x2="65.8967" y2="136.49" gradientUnits="userSpaceOnUse">
<stop stop-color="#FFE000"/>
<stop offset="0.4087" stop-color="#FFBD00"/>
<stop offset="0.7754" stop-color="#FFA500"/>
<stop offset="1" stop-color="#FF9C00"/>
</linearGradient>
<linearGradient id="paint2_linear_3849_2" x1="169.816" y1="163.878" x2="46.1006" y2="286.888" gradientUnits="userSpaceOnUse">
<stop stop-color="#FF3A44"/>
<stop offset="1" stop-color="#C31162"/>
</linearGradient>
<linearGradient id="paint3_linear_3849_2" x1="50.0176" y1="39.5479" x2="105.155" y2="94.4548" gradientUnits="userSpaceOnUse">
<stop stop-color="#32A071"/>
<stop offset="0.0685" stop-color="#2DA771"/>
<stop offset="0.4762" stop-color="#15CF74"/>
<stop offset="0.8009" stop-color="#06E775"/>
<stop offset="1" stop-color="#00F076"/>
</linearGradient>
<linearGradient id="paint4_linear_3849_2" x1="169.755" y1="183.505" x2="70.6771" y2="282.742" gradientUnits="userSpaceOnUse">
<stop stop-color="#CC2E36"/>
<stop offset="1" stop-color="#9C0E4E"/>
</linearGradient>
<linearGradient id="paint5_linear_3849_2" x1="79.473" y1="59.6496" x2="15.1551" y2="124.072" gradientUnits="userSpaceOnUse">
<stop stop-color="#008DE0"/>
<stop offset="0.00657" stop-color="#008DE0"/>
<stop offset="0.2601" stop-color="#00A7E0"/>
<stop offset="0.5122" stop-color="#00B8E0"/>
<stop offset="0.7604" stop-color="#00C4E0"/>
<stop offset="1" stop-color="#00C7E0"/>
</linearGradient>
<linearGradient id="paint6_linear_3849_2" x1="231.346" y1="136.983" x2="65.8961" y2="136.983" gradientUnits="userSpaceOnUse">
<stop stop-color="#E0C500"/>
<stop offset="0.4087" stop-color="#E0A600"/>
<stop offset="0.7754" stop-color="#E09100"/>
<stop offset="1" stop-color="#E08900"/>
</linearGradient>
<linearGradient id="paint7_linear_3849_2" x1="231.349" y1="136.983" x2="65.8994" y2="136.983" gradientUnits="userSpaceOnUse">
<stop stop-color="#FFE840"/>
<stop offset="0.4087" stop-color="#FFCE40"/>
<stop offset="0.7754" stop-color="#FFBC40"/>
<stop offset="1" stop-color="#FFB540"/>
</linearGradient>
<linearGradient id="paint8_linear_3849_2" x1="79.4032" y1="59.7657" x2="17.4537" y2="119.127" gradientUnits="userSpaceOnUse">
<stop stop-color="#40B8FF"/>
<stop offset="0.00657" stop-color="#40B9FF"/>
<stop offset="0.2601" stop-color="#40CEFF"/>
<stop offset="0.5122" stop-color="#40DDFF"/>
<stop offset="0.7604" stop-color="#40E7FF"/>
<stop offset="1" stop-color="#40EAFF"/>
</linearGradient>
<linearGradient id="paint9_linear_3849_2" x1="49.8937" y1="57.492" x2="94.1363" y2="101.806" gradientUnits="userSpaceOnUse">
<stop stop-color="#65B895"/>
<stop offset="0.0685" stop-color="#62BD95"/>
<stop offset="0.4762" stop-color="#50DB97"/>
<stop offset="0.8009" stop-color="#44ED98"/>
<stop offset="1" stop-color="#40F498"/>
</linearGradient>
<clipPath id="clip0_3849_2">
<rect width="924" height="274" fill="white"/>
</clipPath>
</defs>
</svg>
